<svg fill="currentColor" role="img" viewBox="0 0 24 24" xmlns="http://www.w3.org/2000/svg"><title>MAC Cosmetics</title><path d="M0 24V0h1.536l4.608 10.29c.123.284.24.55.351.804.112.253.2.46.264.624a3.3 3.3 0 0 1 .168.6l.048.336h.06c.012-.132.03-.294.054-.486.023-.192.054-.408.09-.648.037-.24.085-.504.144-.792.06-.288.132-.588.216-.9L12.072 0H24v24h-1.56l-4.728-10.68c-.12-.276-.234-.54-.342-.792-.108-.252-.198-.456-.27-.612-.072-.156-.126-.276-.162-.36a1.2 1.2 0 0 1-.06-.216h-.06c-.024.132-.054.3-.09.492-.036.192-.078.414-.126.666-.048.252-.096.504-.144.756l-.18.864L11.52 24H0Z"/></svg>
