<svg fill="currentColor" role="img" viewBox="0 0 24 24" xmlns="http://www.w3.org/2000/svg"><title>Ulta Beauty</title><path d="M12.052 14.534c-1.39 0-2.639-1.12-2.639-2.52 0-1.39 1.12-2.52 2.51-2.52s2.51 1.13 2.51 2.52c.009 1.4-1.12 2.52-2.381 2.52zm11.948.13c0 4.96-4.96 9.17-11.95 9.17C5.04 23.834 0 19.624 0 14.664c0-4.04 2.8-7.55 6.64-8.71l.24-9.01h10.2l.28 9.01c3.83 1.16 6.64 4.67 6.64 8.71zM12.04 3.7c-4.43 0-8.04 3.7-8.04 8.21 0 3.34 2.11 6.13 5.09 7.42l-.24 2.05h6.3l-.25-2.05c2.98-1.29 5.09-4.08 5.09-7.42 0-4.51-3.6-8.2-8.04-8.2z"/></svg>
