<?xml version="1.0" encoding="UTF-8"?>
<svg id="Layer_2" data-name="Layer 2" xmlns="http://www.w3.org/2000/svg" viewBox="0 0 327.64 48.39">
  <defs>
    <style>
      .cls-1 {
        fill-rule: evenodd;
      }
    </style>
  </defs>
  <g id="Layer_1-2" data-name="Layer 1">
    <g>
      <path class="cls-1" d="M230.8,2.42l25.35-.06,2.14-.09c1.35-.08,2.07-.32,2.31-.79.8-.39,1.59-.24,2.14.4,1.27,1.75,2.37,3.73,3.09,5.87.63,1.52-.55,2.55-1.59,1.68-1.26-1.19-2.55-2.3-3.97-3.18-1.03-.64-2.14-.8-3.26-.88h-8.5l-.08,36.3c0,.88.25,1.42.72,1.67l1.68.95c1.03.95.23,2.22-1.2,2.15h-10c-1.43.08-1.57-1.2-.87-1.82l1.5-.96c.49-.23.64-.95.73-1.98l-.09-36.38h-9.36c-2.06,0-3.81.39-4.85,1.58l-1.44,1.68c-1.74,2.86-3.81,1.43-2.61-.48l2.15-5.24c.71-1.29,1.5-1.74,2.7-1.2l.87.48c.56.25,1.35.4,2.46.31"/>
      <path class="cls-1" d="M276.71,2.36l25.34.06,2.22-.06c1.27-.09,2.05-.41,2.3-.82.71-.37,1.59-.31,2.07.33,1.27,1.83,2.46,3.81,3.17,5.87.56,1.6-.64,2.62-1.58,1.76-1.27-1.19-2.63-2.31-4.06-3.17-.97-.65-2.15-.8-3.26-.88l-8.65-.08v36.06c0,.86.31,1.66.8,1.91l1.49.79c1.11.96.25,2.47-1.1,2.23l-9.93.08c-1.51.08-1.68-1.44-.96-2.06l1.5-.95c.49-.23.73-.95.73-1.99l.08-36.06h-9.46c-1.98,0-3.72.32-4.84,1.5l-1.34,1.68c-1.76,2.86-3.82,1.51-2.62-.41l2.14-5.24c.63-1.27,1.51-1.82,2.7-1.27l.78.55c.65.17,1.44.23,2.47.17"/>
      <path class="cls-1" d="M316.51,2.42h8.83c2.06-.06,2.61,1.2,1.66,1.91l-1.27.64c-.64.56-.96,1.27-1.11,2.22v33.92c0,1.1.47,1.97,1.02,2.3.49.39.97.71,1.53,1.03.94.48.39,1.99-.56,1.99h-10.02c-1.89.17-2.37-1.03-1.34-1.82.47-.24.96-.56,1.27-1.04.48-.79.87-1.66.87-2.45l-.08-34.41c0-.87-.32-1.51-.79-1.82l-1.27-.64c-.72-.95,0-1.74,1.27-1.83"/>
      <path class="cls-1" d="M37.79.6c1.43-.64,2.47-.24,3.09,1.2l3.42,4.91c.8,1.91-.96,3.35-2.77,1.27-2.16-1.42-3.66-2.78-5.49-3.58-9.29-4.05-14.46-1.99-15.65,3.34-.47,2.62,1.03,5.88,6.52,7.31,6.83,1.67,14.53,3.5,19.86,6.04,4.45,2.86,7.07,6.99,5.63,14.05-2.29,12.96-20.17,16.77-35.18,9.85-4.69-2.45-8.49-5.39-11.92-8.33-.96-.86-1.9-1.19-2.78-.47-1.82.69-2.93-.73-2.38-1.92,1.5-1.5,2.55-3.09,3.66-4.85.87-.87,2.46-.39,2.46,1.52-.08,1.27-.08,1.91.8,2.95,3.72,3.17,8.1,6.11,13.1,8.66,17.79,6.19,30.03-5.33,22.25-13.99-2.15-2.45-12.87-4.92-19.56-7.15-2.78-.95-4.6-1.65-6.75-3.64-3.89-3.82-4.53-8.67-.08-13.99C19.6-.28,25.09-.51,31.43.52c2.55.4,3.66,1.67,6.36.08"/>
      <path class="cls-1" d="M57.72,2.42c-2.93-.48-4.21,1.53-1.35,3.02.38.63.95,1.83.79,3.75v30.64c0,2.16-.88,3.18-1.99,3.41-2.85.96-2.39,3.9.64,3.19l30.11-.17c2.86.56,3.74.24,5-2.53l1.83-3.42c1.35-2.62-1.11-3.34-2.63-1.66-3.57,3.48-6.83,5.08-9.67,4.59h-16.21l-.17-21.27,18.5-.09c.08-.16.8.23,1.66.72,1.76.95,3.1,3.18,4.22,2.55,1.26-.74-1.84-8.11-3.82-8.35-.87-.08-1.1.72-1.74,1.19-.96.79-1.83.79-3.5.79l-15.09.1V5.13h15.81c.96.07,1.75.31,2.46.94l3.34,2.47c1.35,1.81,3.42,1.03,2.15-1.19l-3.02-5.96c-.87-1.19-1.75-1.19-2.69-.48l-.96.95c-.63.48-1.59.64-2.71.55h-20.97Z"/>
      <path class="cls-1" d="M99.28,2.42c-2.94-.48-4.22,1.53-1.27,3.02.31.63.95,1.83.72,3.75l-.18,30.64c.09,2.16-.69,3.18-1.81,3.41-2.86.96-2.31,3.9.63,3.19l30.1-.17c2.87.56,3.74.24,5.01-2.53l1.91-3.42c1.26-2.62-1.19-3.34-2.62-1.66-3.66,3.48-6.99,5.32-9.94,4.85h-16.05l-.07-21.52,18.43-.09c.07-.16.8.23,1.67.72,1.75.95,3.17,3.18,4.2,2.55,1.27-.74-1.83-8.11-3.81-8.35-.87-.08-1.1.72-1.75,1.19-.95.79-1.66.96-3.34.96l-15.25.08V5.13h15.89c.87.07,1.75.31,2.46.94l3.26,2.47c1.43,1.81,3.41,1.03,2.23-1.19l-3.1-5.96c-.79-1.19-1.75-1.19-2.62-.48l-1.03.95c-.63.48-1.59.64-2.7.55h-20.97Z"/>
      <path class="cls-1" d="M141.52,4.65l1.45,1.59c.54.71.63,1.67.23,2.95l-5.08,31.93c-.17.95-.55,1.43-1.27,2.22-.47.46-1.2.71-1.76.95-.79.4-.79,2.22.74,2.15h7.62c1.89.32,2.38-1.5,1.26-2.22-2.22-1.2-3.25-2.37-2.93-4.38l4.28-26.75,12.56,24.23,13.26-22.57,4.68,25.73c.25,2.23-.47,3.03-1.73,3.5-1.6.32-1.68,2.63.07,2.54l12.01-.08c1.11,0,1.42-1.67.39-2.31-1.75-.95-1.99-.95-2.39-3.01l-5.16-32.72c-.24-1.35-.17-2.23.24-2.79l.71-.71c.88-1.27.07-2.62-1.19-2.53l-8.1.06c-1.51-.06-2.22.88-1.51,1.91l.95,1.03c.48.48.64,1.2.32,1.76l-10,18.03-9.14-18.36c-.4-.72-.55-1.35-.24-1.91l.56-.71c.39-1.35-.56-1.82-1.83-1.82l-8.74.06c-1.27,0-1.52,1.44-.25,2.23"/>
      <path class="cls-1" d="M210.62,2.51c-1.51.16-1.89.95-2.39,2.3l-14.53,36.23c-.63,1.18-1.27,2.05-1.99,2.46-.46.15-.87.39-1.19.55-1.19.48-1.43,2.14.32,2.38h7.72c1.82.24,2.62-1.5,1.42-2.22l-1.42-.79c-.49-.48-.55-1.12-.33-1.91l2.78-7.54h17.55l3.27,7.14c.16.95,0,1.82-.56,2.3l-1.19.71c-1.03.4-1.19,2.14.41,2.23h12.38c2.94.32,3.25-1.83,1.35-2.38-.4-.08-.87-.32-1.35-.56-.64-.63-1.35-1.43-1.9-2.47l-14.22-33.67c-.39-.56-.25-1.11.24-1.59l.86-.55c1.05-1.11,0-2.54-1.35-2.62h-5.88ZM209.53,11.72l7.94,19.29h-15.01l7.08-19.29Z"/>
    </g>
  </g>
</svg>